{"title":"Dead Country (2008) WEBRip","uid":8397163,"size":790606318,"categoryP":"video","categoryS":"movies","magnet":"?xt=urn:btih:7666b2958273a876a686fa967eb546bef762e0cc&amp;dn=Dead+Country+%282008%29+WEBRip&amp;tr=udp%3A%2F%2Ftracker.openbittorrent.com%3A80&amp;tr=udp%3A%2F%2Fopen.demonii.com%3A1337&amp;tr=udp%3A%2F%2Ftracker.coppersurfer.tk%3A6969&amp;tr=udp%3A%2F%2Fexodus.desync.com%3A6969","seeders":2,"leechers":0,"uploader":"RadioResearch","files":3,"time":1366602299,"description":"*******************************************************************************\n                          Dead Country (2008) WEBRip\n*******************************************************************************\n\n-------------------------------------------------------------------------------\n                              General Information\n-------------------------------------------------------------------------------\nType.................: Movie\n\n\n\nVideo Format.........: AVI\nVideo Bitrate........: 1467\nResolution...........: 640 x 480\nColor................: 8 bit\nFPS..................: 24.000\nSource...............: WEB 4:3\nOriginal Format......: NTSC\nGenre................: Horror\nIMDb Rating..........: 3.3\nMovie Information....: http://www.imdb.com/title/tt1002974/\n\n-------------------------------------------------------------------------------\n                               Post Information\n-------------------------------------------------------------------------------\nPosted by............: RadioResearch\nPosted on............: 4/22/2013\n\n-------------------------------------------------------------------------------\n                                 Release Notes\n-------------------------------------------------------------------------------\nSEEDBOX SPPORTED!!\n\nA space ship explodes in the night sky above a small rural town showering the \npopulation with a deadly alien virus, which then spreads a zombie plague upon \nthe town folk. \n\nOnly in Oz!\nEnjoy!\n\nRadioResearch\n\nGeneral\nComplete name                            : G:Dead Country (2008) WEBRipDead \nCountry.avi\nFormat                                   : AVI\nFormat/Info                              : Audio Video Interleave\nFile size                                : 754 MiB\nDuration                                 : 1h 11mn\nOverall bit rate                         : 1 467 Kbps\n\nVideo\nID                                       : 0\nFormat                                   : mp43\nCodec ID                                 : mp43\nDuration                                 : 1h 11mn\nBit rate                                 : 1 327 Kbps\nWidth                                    : 640 pixels\nHeight                                   : 480 pixels\nDisplay aspect ratio                     : 4:3\nFrame rate                               : 24.000 fps\nBits/(Pixel*Frame)                       : 0.180\nStream size                              : 682 MiB (90%)\n\nAudio\nID                                       : 1\nFormat                                   : MPEG Audio\nFormat version                           : Version 1\nFormat profile                           : Layer 3\nMode                                     : Joint stereo\nMode extension                           : MS Stereo\nCodec ID                                 : 55\nCodec ID/Hint                            : MP3\nDuration                                 : 1h 11mn\nBit rate mode                            : Constant\nBit rate                                 : 128 Kbps\nChannel(s)                               : 2 channels\nSampling rate                            : 44.1 KHz\nCompression mode                         : Lossy\nStream size                              : 65.8 MiB (9%)\nAlignment                                : Aligned on interleaves\nInterleave, duration                     : 26 ms (0.63 video frame)\nWriting library                          : LAME3.98.2\n\n\n\n\n-------------------------------------------------------------------------------\nGenerated with Cool NFO Creator - http://fly.to/coolbeans\n-------------------------------------------------------------------------------\n","torrent":{"xt":"urn:btih:7666b2958273a876a686fa967eb546bef762e0cc","amp;dn":"Dead+Country+%282008%29+WEBRip","amp;tr":["udp%3A%2F%2Ftracker.openbittorrent.com%3A80","udp%3A%2F%2Fopen.demonii.com%3A1337","udp%3A%2F%2Ftracker.coppersurfer.tk%3A6969","udp%3A%2F%2Fexodus.desync.com%3A6969"],"infoHash":"7666b2958273a876a686fa967eb546bef762e0cc","infoHashBuffer":{"type":"Buffer","data":[118,102,178,149,130,115,168,118,166,134,250,150,126,181,70,190,247,98,224,204]},"announce":[],"urlList":[]}}